HIERARCHY
ROOT joint_0
{
	OFFSET -212.520721 120.562408 434.227997
	CHANNELS 6 Xposition Yposition Zposition Zrotation Yrotation Xrotation 
	JOINT joint_1
	{
		OFFSET 2.474272 -32.128098 -0.738785
		CHANNELS 3 Zrotation Yrotation Xrotation
		JOINT joint_2
		{
			OFFSET 0.103459 1.857837 10.548508
			CHANNELS 3 Zrotation Yrotation Xrotation
			JOINT joint_3
			{
				OFFSET 43.500008 -0.000038 0.000008
				CHANNELS 3 Zrotation Yrotation Xrotation
				JOINT joint_4
				{
					OFFSET 42.372196 0.000023 -0.000010
					CHANNELS 3 Zrotation Yrotation Xrotation
					JOINT joint_5
					{
						OFFSET 17.300007 0.000003 -0.000004
						CHANNELS 3 Zrotation Yrotation Xrotation
						End Site
						{
							OFFSET 0.000000 0.000000 0.000000
						}
					}
				}
			}
		}
		JOINT joint_6
		{
			OFFSET 0.103459 1.857834 -10.548512
			CHANNELS 3 Zrotation Yrotation Xrotation
			JOINT joint_7
			{
				OFFSET 43.500050 -0.000034 0.000002
				CHANNELS 3 Zrotation Yrotation Xrotation
				JOINT joint_8
				{
					OFFSET 42.372257 0.000015 0.000013
					CHANNELS 3 Zrotation Yrotation Xrotation
					JOINT joint_9
					{
						OFFSET 17.299990 -0.000006 0.000004
						CHANNELS 3 Zrotation Yrotation Xrotation
						End Site
						{
							OFFSET 0.000000 0.000000 0.000000
						}
					}
				}
			}
		}
		JOINT joint_10
		{
			OFFSET 6.901970 -2.603734 0.000004
			CHANNELS 3 Zrotation Yrotation Xrotation
			JOINT joint_11
			{
				OFFSET 12.588094 0.000009 0.000000
				CHANNELS 3 Zrotation Yrotation Xrotation
				JOINT joint_12
				{
					OFFSET 12.343201 -0.000005 -0.000001
					CHANNELS 3 Zrotation Yrotation Xrotation
					JOINT joint_13
					{
						OFFSET 25.832907 0.000011 0.000002
						CHANNELS 3 Zrotation Yrotation Xrotation
						JOINT joint_14
						{
							OFFSET 11.766597 0.000002 0.000004
							CHANNELS 3 Zrotation Yrotation Xrotation
							End Site
							{
								OFFSET 0.000000 0.000000 0.000000
							}
						}
					}
					JOINT joint_15
					{
						OFFSET 19.745907 -1.480370 6.000103
						CHANNELS 3 Zrotation Yrotation Xrotation
						JOINT joint_16
						{
							OFFSET 11.284124 -0.000017 -0.000018
							CHANNELS 3 Zrotation Yrotation Xrotation
							JOINT joint_17
							{
								OFFSET 33.000053 0.000005 0.000034
								CHANNELS 3 Zrotation Yrotation Xrotation
								JOINT joint_18
								{
									OFFSET 25.200001 0.000028 -0.000003
									CHANNELS 3 Zrotation Yrotation Xrotation
									End Site
									{
										OFFSET 0.000000 0.000000 0.000000
									}
								}
							}
						}
					}
					JOINT joint_19
					{
						OFFSET 19.746109 -1.480360 -6.000067
						CHANNELS 3 Zrotation Yrotation Xrotation
						JOINT joint_20
						{
							OFFSET 11.284139 0.000001 0.000006
							CHANNELS 3 Zrotation Yrotation Xrotation
							JOINT joint_21
							{
								OFFSET 33.000118 0.000020 0.000005
								CHANNELS 3 Zrotation Yrotation Xrotation
								JOINT joint_22
								{
									OFFSET 25.199759 0.000119 0.000422
									CHANNELS 3 Zrotation Yrotation Xrotation
									End Site
									{
										OFFSET 0.000000 0.000000 0.000000
									}
								}
							}
						}
					}
				}
			}
		}
	}
}
MOTION
Frames: 12
Frame Time: 0.016667
-165.368958 110.466530 313.215698 180.000000 33.475960 180.000000 84.360497 -11.143485 92.068970 174.409012 1.325896 -173.219208 7.787982 3.247906 -58.472393 1.128326 -5.104326 59.015324 0.000000 0.003093 21.454556 -174.048737 -8.318192 126.629311 1.849913 -5.812048 -46.481144 5.812613 0.171710 80.793030 -0.000019 -0.003109 21.454559 -2.137957 0.288439 8.588143 -4.254096 0.708031 7.150458 -4.258287 0.682495 6.833289 12.668692 -8.197485 -25.825359 3.918164 7.099653 -4.294202 -35.246387 -77.177025 -146.884003 5.347889 49.636696 -30.468653 3.824904 -0.142791 -125.217636 37.905903 -9.637324 3.645831 8.331223 80.206734 -173.268356 -46.857594 -40.826157 35.711090 -2.990539 0.256973 -103.992500 -19.959948 13.799680 1.939205 
-161.781204 110.572197 307.840088 180.000000 33.645531 180.000000 83.859383 -9.851754 92.374268 173.223984 1.062575 -176.126999 4.686317 3.830992 -66.209816 -0.644224 -3.632191 62.357082 -0.000000 0.003093 21.454550 -173.619705 -8.282893 128.630692 2.119817 -6.316373 -52.020252 1.070535 -1.155296 82.195992 -0.000017 -0.003108 21.454557 -1.839061 0.200017 8.800065 -3.661048 0.519762 7.579037 -3.664115 0.497801 7.261636 12.457053 -8.864299 -25.296457 3.348506 7.100171 -4.635667 -31.286417 -77.238152 -150.764389 8.013100 51.030453 -26.944628 3.688599 -0.173280 -121.776772 36.554249 -7.041169 5.335518 11.811172 79.244148 -169.840561 -43.700748 -43.780163 32.905563 -2.940348 0.389339 -102.660217 -19.791904 14.109765 1.970104 
-158.162994 110.680496 302.410461 180.000000 33.822525 180.000000 83.581001 -8.448621 92.550247 171.737350 0.244328 -179.799118 1.170898 4.622565 -74.180504 -1.448062 -1.414707 66.624870 -0.000002 0.003090 21.454548 -172.184433 -8.022712 131.206223 2.498936 -6.887358 -58.805103 -4.031672 -2.296798 88.032722 -0.000017 -0.003112 21.454557 -1.512426 0.193779 9.023722 -3.007761 0.491820 8.028218 -3.010662 0.473791 7.710582 12.415046 -10.380077 -24.276169 2.337118 7.433928 -5.463459 -27.846281 -76.822792 -154.145111 10.079212 52.287857 -23.678780 3.526726 -0.289934 -117.553108 37.012928 -5.462315 6.730835 12.700643 78.604118 -168.965668 -39.797890 -46.712654 29.381563 -2.886363 0.555759 -101.186722 -19.479582 14.746955 1.925454 
-154.522202 110.776672 296.933258 180.000000 33.984661 180.000000 83.507782 -7.022121 91.996574 170.891891 -1.744704 175.568817 -1.513105 5.194116 -81.782211 -1.727833 0.431180 71.970612 -0.000003 0.003091 21.454550 -171.868271 -8.555340 134.802307 3.441198 -7.014418 -63.743099 -4.504940 -2.746162 93.498825 -0.000017 -0.003112 21.454557 -1.093516 0.361365 9.354113 -2.156907 0.803670 8.688064 -2.161711 0.790770 8.370178 12.129963 -11.809242 -23.439524 1.239603 7.418380 -6.599747 -25.172848 -76.585854 -156.766983 11.329638 53.919369 -20.997419 3.354665 -0.626407 -112.793709 40.840405 -5.498446 7.511220 12.718500 77.597954 -168.946854 -34.032749 -49.008125 23.689987 -2.838102 0.744338 -99.789040 -19.384228 15.483770 1.938259 
-150.870087 110.839394 291.412170 180.000000 34.110893 180.000000 83.501144 -6.233995 91.168282 171.073349 -4.090032 169.226395 -3.310262 5.414795 -88.419853 -1.400071 1.815036 77.569000 -0.000003 0.003094 21.454550 -172.230026 -9.452362 138.885178 4.461778 -7.196750 -66.322258 -2.338632 -3.035670 98.006538 -0.000017 -0.003111 21.454559 -0.622318 0.608908 9.610037 -1.194305 1.265275 9.201187 -1.201924 1.258182 8.883085 11.818696 -12.922251 -23.528587 0.315994 7.127810 -6.954718 -22.985313 -76.145630 -158.914185 12.517416 55.360081 -18.150433 3.190074 -1.097697 -108.274673 48.968185 -6.295818 7.910767 10.349427 76.125648 -171.261185 -26.436277 -50.035694 16.317142 -2.798795 0.840836 -98.781288 -19.364876 15.865709 2.127858 
-147.215866 110.876640 285.863098 180.000000 34.188320 180.000000 83.508865 -6.620354 90.809090 172.190384 -5.546227 160.671356 -4.573237 5.221996 -93.452965 -0.526438 2.891052 82.339828 -0.000001 0.003097 21.454540 -172.188492 -9.942611 142.801331 5.023862 -8.028868 -67.106392 -1.186984 -3.196645 102.416771 -0.000017 -0.003112 21.454557 -0.177260 0.782040 9.589697 -0.292025 1.575589 9.165400 -0.301537 1.573937 8.847178 11.785665 -13.795363 -24.899830 -0.345931 6.906627 -5.712160 -21.513424 -74.976128 -160.368103 14.551328 55.753780 -14.172037 3.074802 -1.522967 -104.966080 60.407467 -6.656211 8.531188 5.015785 74.507713 -176.454391 -18.336882 -49.812111 9.099578 -2.778639 0.720336 -98.552902 -19.104811 15.653644 2.411680 
-143.556870 110.926964 280.315338 180.000000 34.213131 180.000000 83.765770 -7.440949 91.218811 173.556732 -5.535902 151.260452 -5.485289 4.863643 -96.107620 -0.569220 3.494754 85.664413 0.000002 0.003095 21.454538 -172.423019 -9.527965 146.958389 5.398909 -8.766349 -66.767090 -0.381962 -3.316782 106.416473 -0.000017 -0.003112 21.454557 0.188123 0.762566 9.419650 0.433886 1.508472 8.830060 0.424769 1.511202 8.511851 11.712529 -14.534476 -26.393602 -1.036303 6.861083 -4.245559 -21.604250 -73.558647 -160.297562 17.593515 54.943802 -8.817834 3.032821 -1.670517 -103.759850 67.634056 -6.067656 10.174438 -0.569377 74.026802 178.107773 -11.987377 -50.250404 3.879315 -2.803771 0.365012 -99.618484 -18.369860 15.696411 2.000793 
-139.884262 110.988487 274.780121 180.000000 34.188984 180.000000 84.332603 -8.047738 92.225502 174.442413 -4.352933 142.411026 -6.155170 4.547640 -95.936707 -2.228229 3.657100 87.351875 0.000003 0.003089 21.454550 -173.265060 -8.179936 151.801804 5.782373 -8.921169 -65.595146 0.990643 -3.526303 109.394257 -0.000018 -0.003109 21.454557 0.514006 0.538863 9.225765 1.065940 1.038736 8.443830 1.059649 1.045292 8.125738 11.237559 -15.260926 -27.001606 -2.070377 7.127823 -3.619948 -23.366655 -72.449783 -158.598923 21.434088 52.999649 -2.557534 3.066387 -1.461772 -104.843971 66.233116 -4.631535 12.532822 -5.231397 75.305336 173.522919 -8.274493 -52.533440 0.932464 -2.881793 -0.174260 -102.202065 -17.081024 16.564327 0.580717 
-136.189911 111.026787 269.246094 180.000000 34.121490 180.000000 84.841698 -8.516767 92.939140 174.748917 -3.356547 134.765610 -6.529681 4.269351 -93.193100 -4.040469 3.617780 87.938690 0.000002 0.003092 21.454554 -173.751343 -6.953020 157.441071 5.856919 -9.128584 -63.097168 2.471468 -3.594193 110.686531 -0.000019 -0.003107 21.454557 1.005780 0.297627 8.988852 2.029640 0.525334 7.969634 2.026435 0.537720 7.651746 10.248958 -16.080931 -26.717907 -3.659978 8.037698 -3.340201 -26.144854 -71.912964 -155.909241 25.816803 50.230785 3.406240 3.139790 -1.149006 -107.040764 60.641796 -3.857015 13.231291 -7.032265 76.966576 171.708496 -7.049907 -54.936840 -0.420672 -3.004344 -0.756113 -105.892418 -15.429644 17.747925 -0.950551 
-132.465790 111.042023 263.705292 180.000000 34.015709 180.000000 85.231453 -8.838791 93.154556 174.720718 -2.889511 128.859650 -6.472833 3.969265 -88.072624 -5.172102 3.419311 88.016731 0.000000 0.003101 21.454550 -173.710068 -6.263928 163.911743 5.435125 -9.621559 -59.245899 3.662202 -3.320192 109.714676 -0.000019 -0.003107 21.454557 1.670433 0.108900 8.701223 3.344360 0.111060 7.391260 3.343637 0.131390 7.073760 8.862345 -17.050274 -25.663797 -5.699156 9.499429 -3.020231 -29.398615 -71.973145 -152.746841 30.426458 47.069607 8.685074 3.229258 -0.889070 -109.515335 55.113358 -4.602198 11.901156 -4.691082 78.204193 173.967667 -8.235611 -56.269070 -0.362470 -3.154706 -1.270561 -110.136223 -13.785276 18.852228 -2.216001 
-128.708588 111.055885 258.155060 180.000000 33.877151 180.000000 85.828766 -8.834874 93.517685 174.480530 -2.019618 125.223328 -5.790405 3.566955 -80.631187 -5.879453 2.904254 88.093864 -0.000000 0.003100 21.454548 -173.796478 -5.474818 171.094788 4.606914 -10.028921 -54.642941 4.417231 -2.683585 105.963493 -0.000017 -0.003110 21.454557 2.273839 -0.115546 8.390855 4.537032 -0.363410 6.761714 4.539143 -0.335882 6.444704 7.409713 -18.180799 -23.987299 -7.741483 10.921773 -2.567605 -32.507374 -72.441643 -149.711212 34.773266 43.989838 13.826414 3.322687 -0.681878 -112.023041 52.462513 -5.943205 10.256949 -0.861848 79.067398 177.707306 -11.276112 -56.485367 0.897065 -3.307685 -1.652980 -114.319824 -12.739669 19.784327 -3.593784 
-124.914619 111.078392 252.588623 180.000000 33.711838 180.000000 86.756714 -8.372276 94.100960 173.958878 -0.526435 123.934784 -4.244318 3.389731 -71.352043 -6.867495 1.696843 88.075462 0.000001 0.003094 21.454550 -173.989380 -4.512381 178.684540 3.530831 -10.082730 -49.527340 4.974220 -1.716496 98.438553 -0.000016 -0.003111 21.454554 2.739974 -0.354883 8.120184 5.457163 -0.855689 6.207350 5.462208 -0.822614 5.890796 6.052698 -19.436054 -21.961121 -9.597208 12.130587 -1.926816 -35.078957 -73.150635 -147.184677 38.537884 41.167885 18.924976 3.409721 -0.523421 -114.336838 52.455822 -7.301331 8.897115 2.707147 79.665672 -178.795349 -15.410060 -55.814423 2.899809 -3.452481 -1.862540 -118.107544 -12.906266 20.272081 -5.120336 
